<svg xmlns="http://www.w3.org/2000/svg" version="1.1" xmlns:xlink="http://www.w3.org/1999/xlink" xmlns:svgjs="http://svgjs.dev/svgjs" width="1440" height="560" preserveAspectRatio="none" viewBox="0 0 1440 560"><g mask="url(&quot;#SvgjsMask1083&quot;)" fill="none"><path d="M447.401,491.321C478.247,490.186,510.126,483.098,526.719,457.07C544.469,429.227,543.999,393.624,528.15,364.656C511.629,334.459,481.811,312.985,447.401,312.097C411.473,311.17,377.5,329.423,359.1,360.296C340.257,391.914,336.715,432.782,357.285,463.305C376.127,491.264,413.709,492.561,447.401,491.321" fill="rgba(127, 0, 169, 0.4)" class="triangle-float1"></path><path d="M1113.535,570.32C1147.019,570.095,1184.033,563.709,1200.069,534.314C1215.689,505.682,1198.175,473.147,1181.995,444.827C1165.628,416.181,1146.526,383.04,1113.535,382.854C1080.37,382.667,1060.373,415.364,1043.727,444.05C1026.989,472.894,1008.829,506.303,1024.964,535.489C1041.415,565.246,1079.534,570.548,1113.535,570.32" fill="rgba(127, 0, 169, 0.4)" class="triangle-float3"></path><path d="M1457.043,409.445C1503.358,410.154,1546.977,390.252,1573.363,352.182C1604.427,307.362,1626.429,250.163,1600.799,202.028C1574.075,151.838,1513.704,128.966,1457.043,133.726C1407.342,137.902,1372.58,178.739,1349.81,223.114C1329.319,263.05,1324.341,309.811,1346.73,348.715C1369.17,387.708,1412.059,408.757,1457.043,409.445" fill="rgba(127, 0, 169, 0.4)" class="triangle-float2"></path><path d="M262.099,401.1C282.437,401.561,303.398,395.192,314.091,377.886C325.274,359.788,324.951,336.101,313.235,318.344C302.484,302.049,281.577,297.777,262.099,299.084C245.059,300.227,230.691,310.028,221.608,324.49C211.787,340.128,205.402,359.294,214.031,375.62C223.114,392.804,242.667,400.66,262.099,401.1" fill="rgba(127, 0, 169, 0.4)" class="triangle-float3"></path><path d="M218.966,635.374C249.79,634.336,277.671,615.85,291.226,588.148C303.413,563.241,294.184,535.006,279.625,511.407C265.955,489.249,244.973,472.242,218.966,471.019C190.711,469.69,163.198,481.632,147.55,505.196C130.027,531.584,122.518,565.545,137.754,593.316C153.47,621.962,186.311,636.474,218.966,635.374" fill="rgba(127, 0, 169, 0.4)" class="triangle-float3"></path></g><defs><mask id="SvgjsMask1083"><rect width="1440" height="560" fill="#ffffff"></rect></mask><style>
                @keyframes float1 {
                    0%{transform: translate(0, 0)}
                    50%{transform: translate(-10px, 0)}
                    100%{transform: translate(0, 0)}
                }

                .triangle-float1 {
                    animation: float1 5s infinite;
                }

                @keyframes float2 {
                    0%{transform: translate(0, 0)}
                    50%{transform: translate(-5px, -5px)}
                    100%{transform: translate(0, 0)}
                }

                .triangle-float2 {
                    animation: float2 4s infinite;
                }

                @keyframes float3 {
                    0%{transform: translate(0, 0)}
                    50%{transform: translate(0, -10px)}
                    100%{transform: translate(0, 0)}
                }

                .triangle-float3 {
                    animation: float3 6s infinite;
                }
            </style></defs></svg>